<?xml version="1.0" encoding="UTF-8"?>
<svg xmlns="http://www.w3.org/2000/svg" xmlns:xlink="http://www.w3.org/1999/xlink" width="135px" height="150px" viewBox="0 0 135 149" version="1.1">
<g id="surface1">
<path style=" stroke:none;fill-rule:nonzero;fill:rgb(94.901961%,94.509804%,92.941177%);fill-opacity:1;" d="M 50.414062 109.164062 C 51.675781 104.714844 58.722656 101.632812 60.824219 109.164062 C 62.253906 114.277344 60.089844 129.964844 56.25 133.644531 C 54.664062 135.164062 50.761719 131.320312 49.023438 129.984375 C 47.710938 128.976562 50.148438 122.683594 50.410156 120.152344 C 50.753906 116.84375 49.269531 113.1875 50.410156 109.167969 Z M 50.414062 109.164062 "/>
<path style=" stroke:none;fill-rule:nonzero;fill:rgb(33.725491%,34.509805%,54.901963%);fill-opacity:1;" d="M 55.347656 134.925781 C 53.519531 134.925781 51.242188 133.023438 49.46875 131.539062 C 49.074219 131.210938 48.734375 130.925781 48.457031 130.710938 C 47.191406 129.734375 47.722656 127.292969 48.742188 123.382812 C 49.085938 122.070312 49.410156 120.832031 49.492188 120.054688 C 49.617188 118.824219 49.46875 117.5 49.3125 116.097656 C 49.066406 113.941406 48.789062 111.496094 49.523438 108.914062 C 50.355469 105.976562 53.25 103.675781 56.113281 103.675781 L 56.121094 103.675781 C 57.367188 103.675781 60.402344 104.195312 61.722656 108.917969 C 63.195312 114.191406 61.03125 130.339844 56.894531 134.304688 C 56.441406 134.742188 55.914062 134.921875 55.347656 134.921875 Z M 49.628906 129.285156 C 49.929688 129.515625 50.269531 129.800781 50.664062 130.128906 C 51.707031 131.003906 54.890625 133.667969 55.605469 132.980469 C 59.210938 129.523438 61.238281 114.09375 59.933594 109.410156 C 59.234375 106.90625 57.878906 105.523438 56.117188 105.519531 L 56.109375 105.519531 C 54.105469 105.519531 51.90625 107.304688 51.304688 109.414062 C 50.671875 111.644531 50.914062 113.804688 51.152344 115.890625 C 51.324219 117.394531 51.484375 118.816406 51.335938 120.242188 C 51.242188 121.160156 50.902344 122.464844 50.539062 123.847656 C 50.101562 125.515625 49.296875 128.605469 49.628906 129.28125 Z M 49.644531 129.304688 Z M 49.644531 129.304688 "/>
<path style=" stroke:none;fill-rule:nonzero;fill:rgb(14.509805%,71.372551%,78.431374%);fill-opacity:1;" d="M 104.15625 97.597656 C 101.355469 99.867188 91.179688 106.960938 90.4375 109.398438 C 89.753906 111.640625 100.917969 109.785156 103.222656 109.320312 C 112.429688 107.464844 117.84375 92.761719 111.929688 90.960938 C 108.179688 89.820312 107.078125 95.234375 104.15625 97.597656 Z M 104.15625 97.597656 "/>
<path style=" stroke:none;fill-rule:nonzero;fill:rgb(33.725491%,34.509805%,54.901963%);fill-opacity:1;" d="M 93.332031 111.253906 C 91.089844 111.253906 90.355469 110.867188 89.972656 110.449219 C 89.65625 110.101562 89.554688 109.640625 89.699219 109.179688 C 90.296875 107.214844 95.101562 103.480469 100.851562 99.160156 C 102.03125 98.273438 103.046875 97.511719 103.671875 97.003906 C 104.613281 96.242188 105.386719 95.070312 106.132812 93.9375 C 107.566406 91.777344 109.1875 89.324219 112.15625 90.222656 C 114.207031 90.847656 115.300781 92.800781 115.164062 95.589844 C 114.914062 100.695312 110.3125 108.675781 103.378906 110.070312 C 102.503906 110.246094 99.589844 110.769531 96.648438 111.058594 C 95.277344 111.195312 94.195312 111.253906 93.332031 111.253906 Z M 91.226562 109.488281 C 92.46875 110.125 99.035156 109.382812 103.070312 108.570312 C 109.183594 107.335938 113.402344 100.015625 113.621094 95.519531 C 113.691406 94.0625 113.417969 92.21875 111.707031 91.699219 C 109.933594 91.160156 108.925781 92.519531 107.425781 94.789062 C 106.613281 96.015625 105.777344 97.285156 104.648438 98.199219 C 104.003906 98.722656 102.972656 99.492188 101.785156 100.390625 C 98.34375 102.972656 92.027344 107.722656 91.230469 109.492188 Z M 91.226562 109.488281 "/>
<path style=" stroke:none;fill-rule:nonzero;fill:rgb(94.901961%,94.509804%,92.941177%);fill-opacity:1;" d="M 43.675781 96.644531 C 41.003906 114.1875 59.304688 130.441406 78.871094 127.789062 C 79.980469 127.636719 81.710938 126.113281 89.601562 123.132812 C 95.414062 120.933594 102.164062 118.660156 103.644531 116.699219 C 108.4375 110.34375 105.863281 103.691406 102.25 100.691406 C 98.382812 97.480469 93.835938 97.597656 85.65625 86.40625 C 79.304688 77.714844 45.296875 86.015625 43.675781 96.640625 Z M 43.675781 96.644531 "/>
<path style=" stroke:none;fill-rule:nonzero;fill:rgb(33.725491%,34.509805%,54.901963%);fill-opacity:1;" d="M 74.625 128.996094 C 65.792969 128.996094 57.117188 125.421875 50.773438 119.019531 C 44.46875 112.65625 41.546875 104.449219 42.757812 96.503906 C 43.730469 90.152344 54.132812 85.453125 62.75 83.367188 C 71.304688 81.292969 82.628906 80.707031 86.40625 85.871094 C 92.128906 93.703125 96.023438 95.871094 99.152344 97.613281 C 100.449219 98.332031 101.671875 99.015625 102.839844 99.988281 C 107.183594 103.589844 109.195312 110.867188 104.382812 117.253906 C 102.949219 119.15625 97.835938 121.054688 92.425781 123.066406 C 91.585938 123.375 90.746094 123.6875 89.925781 123.996094 C 85.152344 125.800781 82.671875 127.054688 81.1875 127.808594 C 80.152344 128.335938 79.578125 128.625 78.992188 128.703125 C 77.535156 128.898438 76.078125 129 74.621094 129 Z M 44.59375 96.78125 C 43.472656 104.148438 46.207031 111.78125 52.097656 117.726562 C 59.078125 124.773438 69.039062 128.191406 78.746094 126.875 C 79.023438 126.839844 79.550781 126.570312 80.351562 126.164062 C 81.867188 125.398438 84.402344 124.113281 89.273438 122.273438 C 90.09375 121.960938 90.933594 121.648438 91.777344 121.335938 C 96.472656 119.59375 101.796875 117.617188 102.902344 116.144531 C 107.535156 110 104.59375 103.839844 101.65625 101.398438 C 100.617188 100.539062 99.523438 99.929688 98.25 99.222656 C 94.964844 97.390625 90.871094 95.113281 84.90625 86.953125 C 82.324219 83.425781 73.394531 82.6875 63.191406 85.160156 C 52.90625 87.652344 45.253906 92.433594 44.59375 96.78125 Z M 44.59375 96.78125 "/>
<path style=" stroke:none;fill-rule:nonzero;fill:rgb(94.901961%,94.509804%,92.941177%);fill-opacity:1;" d="M 69.875 113.875 C 71.140625 109.421875 78.183594 106.339844 80.289062 113.875 C 81.71875 118.984375 80.640625 133.621094 75.925781 137.71875 C 74.269531 139.160156 70.226562 136.027344 68.488281 134.691406 C 67.179688 133.683594 69.613281 127.390625 69.875 124.859375 C 70.21875 121.550781 68.734375 117.894531 69.875 113.875 Z M 69.875 113.875 "/>
<path style=" stroke:none;fill-rule:nonzero;fill:rgb(33.725491%,34.509805%,54.901963%);fill-opacity:1;" d="M 74.835938 139.011719 C 72.59375 139.011719 69.695312 136.78125 67.957031 135.449219 L 67.921875 135.421875 C 66.65625 134.445312 67.183594 132.003906 68.207031 128.09375 C 68.550781 126.78125 68.875 125.542969 68.957031 124.765625 C 69.082031 123.535156 68.933594 122.210938 68.777344 120.808594 C 68.53125 118.652344 68.253906 116.207031 68.984375 113.625 C 69.820312 110.6875 72.710938 108.386719 75.578125 108.386719 L 75.585938 108.386719 C 76.832031 108.386719 79.867188 108.90625 81.1875 113.628906 C 82.722656 119.121094 81.539062 134.066406 76.539062 138.414062 C 76.050781 138.835938 75.46875 139.015625 74.839844 139.015625 Z M 69.09375 133.992188 C 73.578125 137.441406 74.917969 137.371094 75.316406 137.023438 C 79.671875 133.238281 80.757812 118.984375 79.398438 114.121094 C 78.703125 111.613281 77.34375 110.230469 75.582031 110.230469 L 75.578125 110.230469 C 73.570312 110.230469 71.371094 112.011719 70.773438 114.121094 C 70.140625 116.351562 70.382812 118.511719 70.621094 120.601562 C 70.789062 122.101562 70.953125 123.527344 70.804688 124.953125 C 70.707031 125.867188 70.367188 127.171875 70.007812 128.554688 C 69.570312 130.222656 68.765625 133.3125 69.097656 133.988281 Z M 69.09375 133.992188 "/>
<path style=" stroke:none;fill-rule:nonzero;fill:rgb(94.901961%,94.509804%,92.941177%);fill-opacity:1;" d="M 93.835938 117.949219 C 90.753906 104.523438 107.117188 101.316406 107.273438 114.027344 C 107.300781 116.066406 106.515625 118.585938 106.5625 120.625 C 106.597656 122.375 108.675781 127.980469 108.4375 129.71875 C 108.160156 131.691406 107.386719 135.121094 105.382812 135.214844 C 103.589844 135.296875 98.292969 134.921875 97.96875 133.167969 C 97.6875 131.648438 99.773438 128.335938 99.210938 126.890625 C 98.453125 124.933594 94.8125 122.1875 93.839844 117.949219 Z M 93.835938 117.949219 "/>
<path style=" stroke:none;fill-rule:nonzero;fill:rgb(33.725491%,34.509805%,54.901963%);fill-opacity:1;" d="M 105.007812 136.144531 C 103.382812 136.144531 97.539062 135.957031 97.054688 133.339844 C 96.875 132.390625 97.289062 131.203125 97.734375 129.941406 C 98.046875 129.042969 98.523438 127.679688 98.34375 127.226562 C 98.117188 126.640625 97.488281 125.863281 96.761719 124.964844 C 95.351562 123.21875 93.59375 121.046875 92.933594 118.15625 C 91.839844 113.390625 92.949219 109.265625 95.984375 106.839844 C 98.300781 104.988281 101.289062 104.558594 103.78125 105.730469 C 106.542969 107.023438 108.152344 110.042969 108.203125 114.019531 C 108.214844 115.105469 108.019531 116.292969 107.832031 117.4375 C 107.652344 118.53125 107.464844 119.664062 107.484375 120.609375 C 107.496094 121.265625 107.914062 122.796875 108.316406 124.273438 C 109.039062 126.941406 109.503906 128.769531 109.351562 129.847656 C 108.789062 133.867188 107.429688 136.042969 105.421875 136.136719 C 105.414062 136.136719 105.261719 136.144531 105.007812 136.144531 Z M 100.863281 106.933594 C 99.574219 106.933594 98.246094 107.394531 97.144531 108.277344 C 94.6875 110.246094 93.8125 113.695312 94.742188 117.75 C 95.308594 120.226562 96.917969 122.214844 98.207031 123.8125 C 99.035156 124.832031 99.746094 125.714844 100.074219 126.566406 C 100.496094 127.648438 100.003906 129.058594 99.484375 130.550781 C 99.175781 131.433594 98.789062 132.539062 98.878906 133.007812 C 98.996094 133.632812 102.480469 134.433594 105.339844 134.300781 C 106.269531 134.257812 107.125 132.410156 107.519531 129.59375 C 107.628906 128.808594 106.992188 126.464844 106.53125 124.753906 C 106.058594 123.023438 105.65625 121.527344 105.636719 120.644531 C 105.613281 119.53125 105.8125 118.3125 106.007812 117.140625 C 106.191406 116.023438 106.363281 114.96875 106.355469 114.042969 C 106.3125 110.753906 105.121094 108.394531 102.996094 107.398438 C 102.332031 107.089844 101.609375 106.9375 100.867188 106.9375 Z M 100.863281 106.933594 "/>
<path style=" stroke:none;fill-rule:nonzero;fill:rgb(14.509805%,71.372551%,78.431374%);fill-opacity:1;" d="M 107.09375 135.929688 C 108.113281 135.53125 107.878906 134.242188 107.226562 133.722656 C 105.882812 132.65625 100.683594 131.449219 98.257812 131.164062 C 93.015625 130.546875 90.433594 134.621094 93.832031 136.574219 C 96.453125 138.078125 103.558594 137.304688 107.09375 135.929688 Z M 107.09375 135.929688 "/>
<path style=" stroke:none;fill-rule:nonzero;fill:rgb(33.725491%,34.509805%,54.901963%);fill-opacity:1;" d="M 98.398438 138.152344 C 96.390625 138.152344 94.578125 137.886719 93.449219 137.238281 C 91.875 136.332031 91.195312 134.867188 91.683594 133.40625 C 92.289062 131.597656 94.773438 129.984375 98.351562 130.40625 C 100.714844 130.683594 106.15625 131.898438 107.710938 133.128906 C 108.320312 133.613281 108.65625 134.457031 108.539062 135.222656 C 108.441406 135.882812 108.015625 136.402344 107.375 136.648438 C 105.183594 137.5 101.550781 138.15625 98.398438 138.15625 Z M 97.21875 131.871094 C 95.003906 131.871094 93.496094 132.84375 93.148438 133.890625 C 92.894531 134.648438 93.273438 135.367188 94.21875 135.90625 C 96.464844 137.195312 103.21875 136.609375 106.8125 135.210938 C 106.957031 135.15625 106.992188 135.085938 107.007812 134.988281 C 107.042969 134.769531 106.917969 134.464844 106.742188 134.324219 C 105.628906 133.4375 100.683594 132.222656 98.167969 131.921875 C 97.839844 131.882812 97.523438 131.867188 97.21875 131.867188 Z M 97.21875 131.871094 "/>
<path style=" stroke:none;fill-rule:nonzero;fill:rgb(14.509805%,71.372551%,78.431374%);fill-opacity:1;" d="M 56.027344 133.808594 C 57.046875 133.414062 57.9375 131.917969 56.859375 130.65625 C 55.78125 129.390625 52.625 126.207031 47.890625 126.25 C 42.648438 125.632812 38.523438 132.167969 41.921875 134.117188 C 44.542969 135.625 52.488281 135.1875 56.027344 133.8125 Z M 56.027344 133.808594 "/>
<path style=" stroke:none;fill-rule:nonzero;fill:rgb(33.725491%,34.509805%,54.901963%);fill-opacity:1;" d="M 47.667969 135.828125 C 45.132812 135.828125 42.800781 135.507812 41.539062 134.777344 C 40.0625 133.929688 39.546875 132.320312 40.164062 130.46875 C 41.074219 127.746094 44.296875 125.078125 47.933594 125.480469 L 47.988281 125.480469 C 52.742188 125.480469 55.953125 128.40625 57.449219 130.15625 C 58.042969 130.855469 58.253906 131.703125 58.042969 132.542969 C 57.820312 133.425781 57.140625 134.203125 56.308594 134.527344 C 54.214844 135.339844 50.789062 135.828125 47.664062 135.828125 Z M 47.21875 126.980469 C 44.644531 126.980469 42.308594 128.9375 41.632812 130.957031 C 41.414062 131.617188 41.207031 132.816406 42.308594 133.449219 C 44.703125 134.824219 52.363281 134.414062 55.75 133.097656 C 56.117188 132.957031 56.445312 132.574219 56.546875 132.171875 C 56.636719 131.816406 56.546875 131.472656 56.273438 131.15625 C 54.953125 129.605469 52.125 127.023438 47.988281 127.023438 C 47.960938 127.023438 47.933594 127.023438 47.902344 127.023438 L 47.855469 127.023438 C 47.855469 127.023438 47.804688 127.015625 47.804688 127.015625 C 47.609375 126.992188 47.414062 126.984375 47.21875 126.984375 Z M 47.21875 126.980469 "/>
<path style=" stroke:none;fill-rule:nonzero;fill:rgb(14.509805%,71.372551%,78.431374%);fill-opacity:1;" d="M 77.121094 135.660156 C 76.621094 137.886719 74.089844 139.15625 72.847656 139.605469 C 69.996094 140.273438 64.578125 140.4375 61.804688 139.261719 C 61.203125 139.007812 60.75 138.492188 60.550781 137.871094 C 59.945312 135.945312 60.816406 134.601562 61.496094 133.671875 C 62.96875 131.664062 65.8125 130.699219 66.878906 130.582031 C 71.710938 130.273438 75.15625 132.269531 77.078125 135.410156 C 77.125 135.480469 77.140625 135.574219 77.121094 135.660156 Z M 77.121094 135.660156 "/>
<path style=" stroke:none;fill-rule:nonzero;fill:rgb(33.725491%,34.509805%,54.901963%);fill-opacity:1;" d="M 67.574219 140.898438 C 65.351562 140.898438 63.085938 140.640625 61.503906 139.96875 C 60.695312 139.625 60.082031 138.945312 59.816406 138.101562 C 59.058594 135.699219 60.285156 134.027344 60.875 133.21875 C 62.511719 130.988281 65.628906 129.949219 66.796875 129.820312 L 66.828125 129.820312 C 71.632812 129.515625 75.5 131.355469 77.738281 135.011719 C 77.886719 135.253906 77.933594 135.554688 77.875 135.828125 C 77.242188 138.632812 74.070312 139.984375 73.113281 140.328125 L 73.023438 140.351562 C 71.640625 140.675781 69.625 140.898438 67.566406 140.898438 Z M 66.945312 131.347656 C 66.113281 131.449219 63.472656 132.273438 62.121094 134.125 C 61.433594 135.0625 60.804688 136.105469 61.285156 137.640625 C 61.414062 138.054688 61.714844 138.390625 62.109375 138.554688 C 64.699219 139.65625 69.957031 139.480469 72.625 138.867188 C 73.246094 138.636719 75.761719 137.597656 76.324219 135.65625 C 74.390625 132.617188 71.066406 131.089844 66.949219 131.347656 Z M 66.945312 131.347656 "/>
<path style=" stroke:none;fill-rule:nonzero;fill:rgb(33.725491%,34.509805%,54.901963%);fill-opacity:1;" d="M 69.367188 140.652344 L 68.128906 140.652344 C 68.128906 134.820312 69.621094 131.378906 72.328125 130.957031 L 72.519531 132.171875 C 70.542969 132.480469 69.367188 135.652344 69.367188 140.652344 Z M 69.367188 140.652344 "/>
<path style=" stroke:none;fill-rule:nonzero;fill:rgb(33.725491%,34.509805%,54.901963%);fill-opacity:1;" d="M 63.300781 139.9375 C 62.078125 136.535156 63.351562 133.738281 63.957031 132.691406 C 64.773438 131.28125 65.886719 130.324219 66.929688 130.132812 L 67.15625 131.339844 C 66.484375 131.460938 65.648438 132.238281 65.027344 133.304688 C 64.507812 134.203125 63.414062 136.605469 64.460938 139.527344 L 63.296875 139.941406 Z M 63.300781 139.9375 "/>
<path style=" stroke:none;fill-rule:nonzero;fill:rgb(33.725491%,34.509805%,54.901963%);fill-opacity:1;" d="M 43.832031 135.335938 C 43.082031 130.96875 44.816406 126.714844 47.78125 125.65625 L 48.195312 126.8125 C 45.820312 127.660156 44.410156 131.390625 45.046875 135.128906 Z M 43.832031 135.335938 "/>
<path style=" stroke:none;fill-rule:nonzero;fill:rgb(33.725491%,34.509805%,54.901963%);fill-opacity:1;" d="M 101.136719 137.46875 C 100.414062 136.503906 100.371094 135.214844 101.019531 133.929688 C 101.5625 132.859375 102.636719 131.777344 103.648438 131.777344 L 103.648438 133.003906 C 103.332031 133.003906 102.582031 133.578125 102.125 134.484375 C 101.875 134.988281 101.535156 135.945312 102.128906 136.738281 L 101.136719 137.472656 Z M 101.136719 137.46875 "/>
<path style=" stroke:none;fill-rule:nonzero;fill:rgb(33.725491%,34.509805%,54.901963%);fill-opacity:1;" d="M 95.277344 137.285156 C 94.128906 134.117188 95.351562 132.453125 97.699219 130.789062 L 98.414062 131.792969 C 96.359375 133.25 95.539062 134.378906 96.441406 136.867188 Z M 95.277344 137.285156 "/>
<path style=" stroke:none;fill-rule:nonzero;fill:rgb(33.725491%,34.509805%,54.901963%);fill-opacity:1;" d="M 65.027344 127.082031 C 60.535156 125.183594 56.621094 121.160156 54.007812 115.75 C 51.355469 110.246094 50.296875 103.769531 51.039062 97.507812 L 52.265625 97.652344 C 50.832031 109.78125 56.648438 122.214844 65.511719 125.949219 Z M 65.027344 127.082031 "/>
<path style=" stroke:none;fill-rule:nonzero;fill:rgb(33.725491%,34.509805%,54.901963%);fill-opacity:1;" d="M 104.667969 105.214844 L 104.667969 103.984375 C 106.359375 103.984375 107.789062 102.738281 108.6875 101.695312 C 111.011719 98.996094 112.402344 94.640625 111.925781 91.5625 L 113.144531 91.375 C 113.683594 94.828125 112.203125 99.507812 109.625 102.496094 C 108.09375 104.277344 106.378906 105.21875 104.667969 105.21875 Z M 104.667969 105.214844 "/>
<path style=" stroke:none;fill-rule:nonzero;fill:rgb(94.117647%,52.156866%,16.078432%);fill-opacity:1;" d="M 38.792969 89.316406 C 38.011719 90.484375 38.507812 94.066406 39.671875 94.859375 C 49.539062 101.644531 79.574219 94.828125 86.675781 85.210938 C 87.796875 83.695312 87.464844 78.800781 85.917969 77.714844 C 75.996094 70.761719 45.507812 79.261719 38.792969 89.316406 Z M 38.792969 89.316406 "/>
<path style=" stroke:none;fill-rule:nonzero;fill:rgb(33.725491%,34.509805%,54.901963%);fill-opacity:1;" d="M 51.816406 98.539062 C 46.386719 98.539062 41.953125 97.554688 39.144531 95.621094 C 37.503906 94.492188 37.019531 90.308594 38.019531 88.808594 C 42.453125 82.171875 55.382812 77.113281 65.523438 75.21875 C 74.777344 73.492188 82.40625 74.128906 86.449219 76.960938 C 87.480469 77.683594 87.921875 79.222656 88.113281 80.382812 C 88.410156 82.191406 88.3125 84.550781 87.421875 85.757812 C 83.277344 91.371094 72.816406 95.292969 64.402344 97.089844 C 59.867188 98.058594 55.597656 98.539062 51.816406 98.539062 Z M 39.566406 89.828125 C 39.039062 90.613281 39.484375 93.613281 40.195312 94.105469 C 44.492188 97.058594 53.617188 97.511719 64.015625 95.289062 C 74.160156 93.117188 82.765625 88.949219 85.925781 84.667969 C 86.324219 84.128906 86.574219 82.453125 86.285156 80.6875 C 86.066406 79.367188 85.664062 78.671875 85.382812 78.472656 C 81.746094 75.925781 74.632812 75.398438 65.867188 77.039062 C 54.113281 79.230469 43.054688 84.613281 39.566406 89.832031 Z M 39.566406 89.828125 "/>
<path style=" stroke:none;fill-rule:nonzero;fill:rgb(26.274511%,61.960787%,72.941178%);fill-opacity:1;" d="M 33.4375 51.253906 L 33.949219 42.265625 L 58.832031 8.167969 C 59.953125 6.628906 62.378906 7.152344 62.765625 9.011719 L 63.648438 16.703125 C 63.765625 18.601562 63.972656 19.578125 63.734375 21.003906 L 63.640625 21.554688 C 63.328125 23.398438 62.578125 25.144531 61.449219 26.640625 L 43.8125 50.332031 L 34.515625 52.632812 L 33.4375 51.257812 Z M 33.4375 51.253906 "/>
<path style=" stroke:none;fill-rule:nonzero;fill:rgb(33.725491%,34.509805%,54.901963%);fill-opacity:1;" d="M 34.207031 53.496094 L 32.648438 51.496094 L 33.191406 41.996094 L 58.207031 7.714844 C 58.910156 6.753906 60.070312 6.3125 61.238281 6.5625 C 62.40625 6.816406 63.28125 7.695312 63.523438 8.859375 L 63.53125 8.925781 L 64.417969 16.660156 C 64.449219 17.132812 64.484375 17.546875 64.515625 17.925781 C 64.609375 19.066406 64.6875 19.972656 64.492188 21.132812 L 64.402344 21.6875 C 64.070312 23.644531 63.261719 25.515625 62.066406 27.101562 L 44.265625 51.011719 L 34.210938 53.503906 Z M 34.222656 51.011719 L 34.8125 51.765625 L 43.355469 49.652344 L 60.828125 26.179688 C 61.882812 24.785156 62.589844 23.144531 62.878906 21.425781 L 62.96875 20.875 C 63.132812 19.902344 63.070312 19.164062 62.976562 18.046875 C 62.945312 17.664062 62.910156 17.246094 62.878906 16.769531 L 62 9.136719 C 61.875 8.582031 61.472656 8.1875 60.910156 8.0625 C 60.34375 7.941406 59.800781 8.144531 59.457031 8.617188 L 34.707031 42.53125 L 34.21875 51.007812 Z M 34.222656 51.011719 "/>
<path style=" stroke:none;fill-rule:nonzero;fill:rgb(94.901961%,94.509804%,92.941177%);fill-opacity:1;" d="M 27.589844 53.929688 C 27.589844 53.929688 29.421875 48.144531 31.230469 44.25 C 33.125 40.167969 38.15625 34.261719 41.792969 31.960938 C 52.203125 25.371094 64.371094 24.265625 77.605469 31.648438 C 88.019531 37.453125 92.3125 47.65625 91.964844 57.695312 C 91.183594 80.339844 74.503906 87.300781 70.113281 88.609375 C 39.238281 97.804688 17.953125 82.109375 14.652344 63.976562 C 14.125 61.070312 14.375 59.105469 14.730469 58.171875 C 15.667969 55.710938 17.496094 55.421875 20.175781 54.71875 C 21.976562 54.246094 27.59375 53.9375 27.59375 53.9375 Z M 27.589844 53.929688 "/>
<path style=" stroke:none;fill-rule:nonzero;fill:rgb(33.725491%,34.509805%,54.901963%);fill-opacity:1;" d="M 52.539062 92.226562 C 43.972656 92.226562 36.089844 90.179688 29.46875 86.140625 C 21.089844 81.027344 15.355469 73.007812 13.738281 64.136719 C 13.28125 61.613281 13.324219 59.257812 13.863281 57.839844 C 14.894531 55.121094 16.953125 54.59375 19.335938 53.980469 C 19.53125 53.929688 19.730469 53.878906 19.933594 53.824219 C 21.453125 53.421875 25.355469 53.144531 26.898438 53.046875 C 27.421875 51.453125 28.898438 47.066406 30.386719 43.867188 C 32.371094 39.582031 37.570312 33.539062 41.289062 31.183594 C 52.746094 23.933594 65.457031 23.816406 78.058594 30.84375 C 87.886719 36.320312 93.292969 46.121094 92.890625 57.726562 C 92.546875 67.621094 89.234375 75.722656 83.042969 81.808594 C 77.746094 87.015625 72.007812 89.007812 70.375 89.492188 C 64.242188 91.316406 58.234375 92.226562 52.535156 92.226562 Z M 59.535156 27.449219 C 53.625 27.449219 47.863281 29.210938 42.289062 32.738281 C 38.871094 34.902344 33.90625 40.683594 32.070312 44.636719 C 30.308594 48.429688 28.492188 54.148438 28.472656 54.207031 L 28.28125 54.816406 L 27.640625 54.851562 C 26.105469 54.9375 21.8125 55.238281 20.410156 55.609375 C 20.203125 55.664062 20 55.714844 19.800781 55.765625 C 17.367188 56.394531 16.265625 56.746094 15.601562 58.496094 C 15.273438 59.355469 15.089844 61.207031 15.566406 63.8125 C 17.089844 72.167969 22.507812 79.734375 30.4375 84.570312 C 41.015625 91.023438 55.011719 92.144531 69.847656 87.730469 C 71.378906 87.273438 76.75 85.410156 81.742188 80.5 C 87.589844 74.757812 90.714844 67.074219 91.039062 57.667969 C 91.417969 46.773438 86.355469 37.585938 77.152344 32.453125 C 71.167969 29.117188 65.28125 27.449219 59.535156 27.449219 Z M 59.535156 27.449219 "/>
<path style=" stroke:none;fill-rule:nonzero;fill:rgb(33.725491%,34.509805%,54.901963%);fill-opacity:1;" d="M 15.828125 57.390625 C 16 57.125 16.667969 56.890625 16.984375 56.867188 C 18.457031 56.746094 21.453125 56.992188 22.875 57.390625 C 24.882812 57.953125 29.246094 59.515625 29.945312 61.472656 C 30.210938 62.203125 28.023438 63.707031 27.183594 64.085938 C 26.515625 64.386719 25.171875 65.027344 24.449219 65.128906 C 23.605469 65.253906 21.871094 64.933594 21.085938 64.609375 C 20.152344 64.222656 18.644531 62.808594 17.929688 62.097656 C 17.273438 61.445312 16.175781 59.914062 15.824219 59.066406 C 15.667969 58.675781 15.597656 57.742188 15.824219 57.390625 Z M 15.828125 57.390625 "/>
<path style=" stroke:none;fill-rule:nonzero;fill:rgb(33.725491%,34.509805%,54.901963%);fill-opacity:1;" d="M 21.851562 67.824219 C 22.410156 66.714844 21.296875 62.882812 21.296875 62.882812 L 24.535156 62.882812 C 24.535156 62.882812 24.488281 66.664062 24.929688 67.824219 C 25.242188 68.652344 26.40625 70.402344 27.109375 70.9375 C 28.269531 71.8125 29.402344 73.09375 31.691406 73.109375 C 34.324219 73.125 35.40625 69.582031 37.1875 70.085938 C 37.5625 70.1875 37.875 70.554688 37.867188 70.9375 C 37.839844 72.300781 35.507812 74.425781 34.316406 75.117188 C 33.113281 75.816406 31.011719 75.878906 29.972656 75.542969 C 27.460938 74.722656 25.734375 72.738281 24.535156 71.429688 C 24.269531 71.140625 23.816406 70.460938 23.523438 70.007812 C 23.375 69.777344 23.054688 69.738281 22.863281 69.933594 C 22.363281 70.425781 21.484375 71.257812 20.941406 71.570312 C 20.246094 71.96875 19.921875 72.113281 19.320312 72.253906 C 18.632812 72.417969 16.726562 72.222656 16.726562 72.222656 L 15.683594 69.234375 C 15.683594 69.234375 17.371094 70.097656 17.984375 70.097656 C 19.105469 70.097656 21.351562 68.820312 21.851562 67.824219 Z M 21.851562 67.824219 "/>
<path style=" stroke:none;fill-rule:nonzero;fill:rgb(94.117647%,52.156866%,16.078432%);fill-opacity:1;" d="M 63.746094 68.714844 C 59.375 68.714844 56.269531 66.125 55.691406 65.609375 C 43.839844 54.996094 31.296875 53.96875 27.363281 53.929688 C 28.472656 50.570312 31.914062 41.070312 36.675781 36.582031 C 37.902344 35.425781 39.148438 35.15625 40.914062 34.882812 C 42.785156 34.59375 44.757812 34.449219 46.777344 34.449219 C 56.292969 34.449219 65.6875 37.632812 70.714844 42.5625 C 73.472656 45.269531 76.328125 48.070312 76.335938 55.535156 C 75.984375 60.707031 72.699219 65.054688 69.785156 66.902344 C 67.867188 68.101562 65.835938 68.710938 63.75 68.710938 Z M 63.746094 68.714844 "/>
<path style=" stroke:none;fill-rule:nonzero;fill:rgb(33.725491%,34.509805%,54.901963%);fill-opacity:1;" d="M 46.773438 35.371094 C 56.058594 35.371094 65.199219 38.453125 70.0625 43.21875 C 72.683594 45.792969 75.390625 48.449219 75.40625 55.503906 C 75.0625 60.339844 72.003906 64.394531 69.289062 66.125 C 67.515625 67.234375 65.652344 67.792969 63.746094 67.792969 C 60.621094 67.792969 57.789062 66.246094 56.3125 64.925781 C 45.292969 55.058594 33.664062 53.3125 28.644531 53.046875 C 30.023438 49.097656 33.167969 41.160156 37.3125 37.25 C 38.3125 36.308594 39.261719 36.074219 41.050781 35.796875 C 42.878906 35.515625 44.804688 35.371094 46.773438 35.371094 M 46.773438 33.527344 C 44.734375 33.527344 42.71875 33.671875 40.769531 33.972656 C 38.855469 34.273438 37.445312 34.585938 36.039062 35.910156 C 29.972656 41.628906 26.089844 54.875 26.089844 54.875 C 26.089844 54.875 26.457031 54.847656 27.125 54.847656 C 30.742188 54.847656 43.21875 55.679688 55.070312 66.292969 C 56.589844 67.652344 59.8125 69.636719 63.746094 69.636719 C 65.78125 69.636719 68.007812 69.105469 70.285156 67.683594 C 73.769531 65.464844 76.925781 60.671875 77.261719 55.566406 C 77.261719 47.929688 74.355469 44.847656 71.363281 41.910156 C 65.972656 36.625 56.15625 33.527344 46.773438 33.527344 Z M 46.773438 33.527344 "/>
<path style=" stroke:none;fill-rule:nonzero;fill:rgb(33.725491%,34.509805%,54.901963%);fill-opacity:1;" d="M 63.746094 65.332031 C 60.554688 65.332031 57.5 62.839844 57.230469 62.632812 C 50.941406 57.886719 44.996094 54.925781 39.054688 53.308594 C 36.3125 52.5625 30.742188 51.933594 28.328125 51.933594 C 29.890625 46.808594 35 38.769531 35.152344 38.652344 C 35.863281 38.105469 39.703125 37.320312 45.148438 37.320312 C 54.179688 37.320312 62.878906 39.867188 68.492188 45.429688 C 70.785156 47.699219 72.484375 49.804688 72.910156 54.335938 C 72.984375 55.117188 72.878906 55.910156 72.691406 56.671875 C 71.648438 60.921875 69.828125 62.96875 67.949219 64.0625 C 66.578125 64.855469 65.1875 65.332031 63.75 65.332031 Z M 63.746094 65.332031 "/>
<path style=" stroke:none;fill-rule:nonzero;fill:rgb(14.509805%,71.372551%,78.431374%);fill-opacity:1;" d="M 57.929688 47.71875 C 56.800781 47.460938 55.429688 49.222656 54.871094 51.652344 C 54.308594 54.082031 54.769531 56.261719 55.898438 56.519531 C 57.027344 56.777344 58.398438 55.015625 58.960938 52.585938 C 59.519531 50.15625 59.058594 47.976562 57.929688 47.71875 Z M 57.929688 47.71875 "/>
<path style=" stroke:none;fill-rule:nonzero;fill:rgb(14.509805%,71.372551%,78.431374%);fill-opacity:1;" d="M 39.199219 42.46875 C 38.195312 42.238281 36.9375 43.976562 36.386719 46.351562 C 35.839844 48.730469 36.210938 50.839844 37.214844 51.070312 C 38.21875 51.296875 39.476562 49.558594 40.027344 47.183594 C 40.574219 44.808594 40.203125 42.695312 39.199219 42.46875 Z M 39.199219 42.46875 "/>
<path style=" stroke:none;fill-rule:nonzero;fill:rgb(14.509805%,71.372551%,78.431374%);fill-opacity:1;" d="M 95.703125 68.035156 L 114.175781 60.851562 C 116.882812 59.800781 119.046875 57.097656 120.191406 54.445312 L 122.851562 48.269531 C 123.28125 47.277344 122.242188 46.285156 121.261719 46.75 L 93.832031 59.769531 L 95.699219 68.039062 Z M 95.703125 68.035156 "/>
<path style=" stroke:none;fill-rule:nonzero;fill:rgb(33.725491%,34.509805%,54.901963%);fill-opacity:1;" d="M 95.144531 69.078125 L 92.945312 59.339844 L 120.929688 46.058594 C 121.667969 45.707031 122.53125 45.84375 123.121094 46.40625 C 123.710938 46.972656 123.882812 47.820312 123.5625 48.570312 L 120.902344 54.746094 C 119.5 57.992188 117.09375 60.539062 114.457031 61.566406 Z M 94.722656 60.195312 L 96.257812 66.992188 L 113.898438 60.132812 C 116.554688 59.097656 118.523438 56.359375 119.480469 54.140625 L 122.140625 47.964844 C 122.238281 47.734375 122.109375 47.574219 122.046875 47.515625 C 121.984375 47.457031 121.820312 47.335938 121.59375 47.441406 Z M 94.722656 60.195312 "/>
<path style=" stroke:none;fill-rule:nonzero;fill:rgb(94.117647%,52.156866%,16.078432%);fill-opacity:1;" d="M 91.136719 51.140625 C 86.65625 50.121094 81.726562 54.929688 80.121094 61.890625 C 78.515625 68.847656 80.84375 75.316406 85.324219 76.335938 C 89.800781 77.359375 94.730469 72.546875 96.335938 65.589844 C 97.941406 58.628906 95.613281 52.164062 91.136719 51.140625 Z M 91.136719 51.140625 "/>
<path style=" stroke:none;fill-rule:nonzero;fill:rgb(33.725491%,34.509805%,54.901963%);fill-opacity:1;" d="M 86.550781 77.390625 C 86.066406 77.390625 85.585938 77.339844 85.109375 77.230469 C 80.140625 76.09375 77.496094 69.121094 79.210938 61.675781 C 80.929688 54.234375 86.367188 49.101562 91.332031 50.234375 C 96.300781 51.371094 98.945312 58.34375 97.230469 65.789062 C 96.417969 69.320312 94.753906 72.453125 92.546875 74.605469 C 90.675781 76.429688 88.589844 77.386719 86.546875 77.386719 Z M 89.890625 51.921875 C 86.210938 51.921875 82.382812 56.195312 81.023438 62.089844 C 79.535156 68.542969 81.554688 74.527344 85.527344 75.433594 C 87.375 75.855469 89.40625 75.097656 91.253906 73.292969 C 93.207031 71.382812 94.6875 68.574219 95.425781 65.378906 C 96.914062 58.929688 94.894531 52.945312 90.921875 52.035156 C 90.582031 51.960938 90.234375 51.921875 89.890625 51.921875 Z M 89.890625 51.921875 "/>
<path style=" stroke:none;fill-rule:nonzero;fill:rgb(14.509805%,71.372551%,78.431374%);fill-opacity:1;" d="M 85.65625 63.996094 L 86.972656 55.089844 L 114.8125 23.332031 C 116.070312 21.902344 118.4375 22.636719 118.65625 24.523438 L 118.847656 32.257812 C 118.792969 34.160156 118.910156 35.152344 118.542969 36.550781 L 118.402344 37.09375 C 117.925781 38.902344 117.023438 40.570312 115.765625 41.960938 L 96.078125 63.996094 L 86.609375 65.464844 L 85.664062 63.996094 Z M 85.65625 63.996094 "/>
<path style=" stroke:none;fill-rule:nonzero;fill:rgb(33.725491%,34.509805%,54.901963%);fill-opacity:1;" d="M 86.148438 66.46875 L 84.6875 64.203125 L 86.09375 54.6875 L 114.109375 22.726562 C 114.933594 21.785156 116.195312 21.429688 117.394531 21.800781 C 118.59375 22.175781 119.425781 23.175781 119.570312 24.421875 L 119.574219 24.5 L 119.765625 32.261719 L 119.765625 32.289062 C 119.753906 32.761719 119.753906 33.175781 119.75 33.554688 C 119.742188 34.710938 119.738281 35.628906 119.433594 36.785156 L 119.292969 37.328125 C 118.78125 39.273438 117.800781 41.089844 116.445312 42.582031 L 96.535156 64.859375 L 86.144531 66.46875 Z M 86.625 63.789062 L 87.058594 64.464844 L 95.597656 63.140625 L 115.066406 41.351562 C 116.226562 40.074219 117.0625 38.523438 117.5 36.863281 L 117.640625 36.320312 C 117.886719 35.382812 117.890625 34.652344 117.898438 33.539062 C 117.898438 33.15625 117.902344 32.734375 117.917969 32.257812 L 117.726562 24.589844 C 117.660156 24.09375 117.332031 23.710938 116.847656 23.558594 C 116.351562 23.40625 115.851562 23.546875 115.511719 23.933594 L 87.851562 55.492188 Z M 86.625 63.789062 "/>
<path style=" stroke:none;fill-rule:nonzero;fill:rgb(94.901961%,94.509804%,92.941177%);fill-opacity:1;" d="M 93.027344 52.78125 C 89.039062 51.871094 84.648438 56.15625 83.21875 62.351562 C 81.789062 68.550781 83.863281 74.308594 87.851562 75.21875 C 91.835938 76.128906 96.226562 71.84375 97.65625 65.648438 C 99.085938 59.449219 97.011719 53.691406 93.027344 52.78125 Z M 93.027344 52.78125 "/>
<path style=" stroke:none;fill-rule:nonzero;fill:rgb(33.725491%,34.509805%,54.901963%);fill-opacity:1;" d="M 88.945312 76.105469 C 88.519531 76.105469 88.09375 76.0625 87.675781 75.964844 C 83.277344 74.964844 80.941406 68.777344 82.460938 62.179688 C 83.980469 55.582031 88.796875 51.027344 93.195312 52.03125 C 95.386719 52.53125 97.128906 54.285156 98.09375 56.972656 C 99.019531 59.539062 99.128906 62.679688 98.40625 65.820312 C 97.683594 68.957031 96.207031 71.738281 94.25 73.644531 C 92.59375 75.261719 90.75 76.109375 88.941406 76.109375 Z M 91.921875 53.421875 C 88.617188 53.421875 85.183594 57.246094 83.96875 62.523438 C 82.636719 68.296875 84.453125 73.652344 88.019531 74.464844 C 89.683594 74.84375 91.511719 74.160156 93.167969 72.546875 C 94.917969 70.839844 96.242188 68.328125 96.902344 65.472656 C 97.558594 62.617188 97.46875 59.78125 96.640625 57.488281 C 95.859375 55.3125 94.511719 53.910156 92.851562 53.527344 C 92.542969 53.457031 92.234375 53.421875 91.921875 53.421875 Z M 91.921875 53.421875 "/>
<path style=" stroke:none;fill-rule:nonzero;fill:rgb(94.117647%,52.156866%,16.078432%);fill-opacity:1;" d="M 90.980469 69.4375 C 90.164062 70.402344 88.59375 70.046875 88.28125 68.824219 C 87.96875 67.601562 87.855469 65.894531 88.34375 63.757812 C 88.835938 61.628906 89.832031 59.859375 90.636719 58.90625 C 91.445312 57.953125 93.027344 58.296875 93.339844 59.519531 C 93.652344 60.722656 93.640625 62.71875 93.148438 64.851562 C 92.660156 66.984375 91.789062 68.484375 90.984375 69.4375 Z M 90.980469 69.4375 "/>
<path style=" stroke:none;fill-rule:nonzero;fill:rgb(33.725491%,34.509805%,54.901963%);fill-opacity:1;" d="M 89.792969 70.605469 C 89.628906 70.605469 89.464844 70.589844 89.296875 70.550781 C 88.5 70.367188 87.878906 69.765625 87.679688 68.976562 C 87.398438 67.871094 87.179688 66.046875 87.738281 63.621094 C 88.265625 61.339844 89.335938 59.484375 90.164062 58.511719 C 90.691406 57.886719 91.515625 57.609375 92.316406 57.796875 C 93.113281 57.976562 93.738281 58.582031 93.9375 59.371094 C 94.296875 60.777344 94.226562 62.929688 93.75 64.992188 C 93.191406 67.421875 92.191406 68.964844 91.453125 69.839844 C 91.035156 70.332031 90.425781 70.609375 89.792969 70.609375 Z M 91.820312 58.964844 C 91.550781 58.964844 91.292969 59.082031 91.109375 59.300781 C 90.375 60.167969 89.421875 61.828125 88.945312 63.894531 C 88.441406 66.082031 88.628906 67.699219 88.875 68.671875 C 88.964844 69.019531 89.226562 69.273438 89.574219 69.351562 C 89.925781 69.4375 90.273438 69.320312 90.507812 69.042969 C 91.160156 68.273438 92.039062 66.902344 92.542969 64.714844 C 93.0625 62.464844 92.988281 60.636719 92.738281 59.671875 C 92.648438 59.324219 92.390625 59.070312 92.039062 58.992188 C 91.964844 58.976562 91.890625 58.964844 91.820312 58.964844 Z M 91.820312 58.964844 "/>
<path style=" stroke:none;fill-rule:nonzero;fill:rgb(33.725491%,34.509805%,54.901963%);fill-opacity:1;" d="M 48.496094 100.753906 C 48.496094 100.40625 48.214844 100.125 47.867188 100.125 C 47.519531 100.125 47.234375 100.40625 47.234375 100.753906 C 47.234375 101.097656 47.519531 101.378906 47.867188 101.378906 C 48.214844 101.378906 48.496094 101.097656 48.496094 100.753906 Z M 48.496094 100.753906 "/>
<path style=" stroke:none;fill-rule:nonzero;fill:rgb(33.725491%,34.509805%,54.901963%);fill-opacity:1;" d="M 64.472656 123.070312 C 64.472656 122.722656 64.191406 122.445312 63.839844 122.445312 C 63.492188 122.445312 63.210938 122.722656 63.210938 123.070312 C 63.210938 123.417969 63.492188 123.699219 63.839844 123.699219 C 64.191406 123.699219 64.472656 123.417969 64.472656 123.070312 Z M 64.472656 123.070312 "/>
<path style=" stroke:none;fill-rule:nonzero;fill:rgb(33.725491%,34.509805%,54.901963%);fill-opacity:1;" d="M 87.5625 66.9375 L 93.074219 60.890625 L 93.988281 61.71875 L 88.480469 67.761719 Z M 87.5625 66.9375 "/>
</g>
</svg>
