<?xml version="1.0" encoding="UTF-8"?>
<svg id="Capa_9" xmlns="http://www.w3.org/2000/svg" viewBox="0 0 436.6 484.88">
  <defs>
    <style>
      .cls-1 {
        fill: #439eba;
      }

      .cls-2 {
        fill: #56588c;
      }

      .cls-3 {
        fill: #f08529;
      }

      .cls-4 {
        fill: #f2f1ed;
      }

      .cls-5 {
        fill: #25b6c8;
      }
    </style>
  </defs>
  <g>
    <path class="cls-4" d="M163,355.25c4.09-14.48,26.89-24.51,33.7,0,4.62,16.63-2.38,67.68-14.81,79.66-5.13,4.94-17.76-7.56-23.39-11.91-4.24-3.28,3.64-23.76,4.49-32,1.11-10.76-3.69-22.66,0-35.74Z"/>
    <path class="cls-2" d="M178.97,439.08c-5.92,0-13.28-6.19-19.02-11.02-1.28-1.07-2.38-2-3.28-2.7-4.09-3.17-2.38-11.12.93-23.84,1.11-4.27,2.16-8.31,2.42-10.84.41-4-.07-8.31-.58-12.87-.79-7.02-1.69-14.98.68-23.38h0c2.7-9.56,12.06-17.04,21.33-17.04h.03c4.03,0,13.85,1.69,18.12,17.05,4.77,17.17-2.24,69.72-15.62,82.62-1.47,1.42-3.17,2.01-5.01,2.01ZM160.47,420.72c.97.75,2.07,1.68,3.34,2.75,3.38,2.85,13.68,11.51,16,9.28,11.66-11.25,18.23-61.46,14-76.7-2.26-8.15-6.65-12.65-12.35-12.66h-.02c-6.49,0-13.61,5.8-15.55,12.67h0c-2.05,7.26-1.26,14.29-.49,21.08.55,4.89,1.07,9.52.59,14.16-.31,2.98-1.41,7.23-2.58,11.73-1.41,5.43-4.02,15.48-2.94,17.68ZM160.51,420.79h0Z"/>
  </g>
  <g>
    <path class="cls-5" d="M336.93,317.61c-9.07,7.38-42,30.47-44.4,38.4-2.21,7.29,33.92,1.26,41.38-.26,29.79-6.04,47.32-53.88,28.17-59.74-12.13-3.71-15.7,13.91-25.15,21.6Z"/>
    <path class="cls-2" d="M301.9,362.05c-7.26,0-9.64-1.26-10.87-2.62-1.03-1.13-1.35-2.64-.89-4.14,1.94-6.39,17.49-18.54,36.09-32.6,3.82-2.88,7.11-5.37,9.13-7.02h0c3.05-2.48,5.55-6.29,7.97-9.97,4.63-7.04,9.88-15.02,19.49-12.09,6.63,2.03,10.17,8.39,9.73,17.46-.81,16.61-15.7,42.58-38.14,47.13-2.83.57-12.26,2.27-21.78,3.21-4.44.44-7.94.63-10.73.63ZM295.09,356.3c4.02,2.07,25.26-.34,38.33-2.99,19.78-4.01,33.43-27.83,34.14-42.47.23-4.74-.66-10.74-6.2-12.43-5.74-1.76-9,2.67-13.85,10.05-2.63,4-5.34,8.13-8.99,11.1-2.09,1.7-5.42,4.21-9.27,7.13-11.13,8.41-31.58,23.87-34.15,29.62Z"/>
  </g>
  <g>
    <path class="cls-4" d="M141.2,314.5c-8.65,57.09,50.58,109.99,113.9,101.35,3.59-.49,9.19-5.45,34.72-15.15,18.82-7.15,40.66-14.55,45.45-20.94,15.51-20.68,7.18-42.32-4.51-52.09-12.52-10.45-27.23-10.06-53.7-46.48-20.56-28.29-130.62-1.28-135.86,33.3Z"/>
    <path class="cls-2" d="M241.36,419.78c-28.59,0-56.66-11.63-77.19-32.46-20.4-20.71-29.86-47.42-25.94-73.27h0c3.14-20.68,36.81-35.96,64.7-42.75,27.68-6.75,64.33-8.66,76.55,8.14,18.53,25.49,31.13,32.55,41.26,38.22,4.19,2.34,8.15,4.56,11.93,7.72,14.05,11.73,20.57,35.41,4.99,56.19-4.64,6.19-21.19,12.37-38.7,18.91-2.71,1.01-5.43,2.03-8.08,3.03-15.45,5.87-23.48,9.96-28.28,12.41-3.36,1.71-5.21,2.66-7.11,2.91-4.71.64-9.43.96-14.14.96ZM144.17,314.95c-3.63,23.97,5.22,48.81,24.28,68.16,22.59,22.93,54.83,34.05,86.25,29.77.89-.12,2.6-.99,5.19-2.31,4.9-2.5,13.11-6.68,28.87-12.67,2.66-1.01,5.38-2.03,8.11-3.05,15.19-5.67,32.42-12.1,36-16.89,14.99-19.99,5.48-40.04-4.03-47.98-3.36-2.8-6.91-4.79-11.02-7.09-10.64-5.96-23.88-13.37-43.19-39.92-8.35-11.48-37.25-13.89-70.27-5.84-33.29,8.11-58.05,23.67-60.19,37.82h0Z"/>
  </g>
  <g>
    <path class="cls-4" d="M225.99,370.57c4.09-14.48,26.89-24.51,33.7,0,4.62,16.63,1.13,64.26-14.12,77.6-5.36,4.69-18.44-5.5-24.07-9.85-4.24-3.28,3.64-23.76,4.49-32,1.11-10.76-3.69-22.66,0-35.74Z"/>
    <path class="cls-2" d="M242.04,452.38c-7.26,0-16.64-7.26-22.26-11.6l-.12-.09c-4.09-3.17-2.38-11.12.93-23.84,1.11-4.27,2.16-8.31,2.42-10.84.41-4-.07-8.31-.58-12.87-.79-7.02-1.69-14.98.68-23.38h0c2.7-9.56,12.06-17.04,21.33-17.04h.03c4.03,0,13.85,1.69,18.12,17.05,4.97,17.88,1.14,66.51-15.04,80.66-1.58,1.38-3.46,1.96-5.5,1.96ZM223.46,436.04c14.51,11.22,18.84,11,20.14,9.87,14.09-12.32,17.61-58.71,13.21-74.54-2.26-8.15-6.65-12.65-12.35-12.66h-.02c-6.49,0-13.61,5.8-15.55,12.67h0c-2.05,7.26-1.26,14.29-.49,21.08.55,4.89,1.07,9.52.59,14.16-.31,2.98-1.41,7.23-2.58,11.73-1.41,5.43-4.02,15.48-2.94,17.68Z"/>
  </g>
  <g>
    <path class="cls-4" d="M303.53,383.84c-9.98-43.7,42.98-54.13,43.49-12.77.08,6.64-2.45,14.83-2.31,21.47.12,5.7,6.85,23.94,6.07,29.59-.89,6.43-3.4,17.58-9.88,17.89-5.8.27-22.95-.95-24-6.66-.91-4.95,5.84-15.73,4.03-20.43-2.46-6.37-14.24-15.31-17.39-29.1Z"/>
    <path class="cls-2" d="M339.68,443.04c-5.26,0-24.17-.6-25.74-9.12-.57-3.09.77-6.96,2.2-11.06,1.02-2.93,2.56-7.36,1.98-8.84-.73-1.9-2.77-4.43-5.12-7.36-4.56-5.68-10.25-12.75-12.39-22.15h0c-3.54-15.51.05-28.93,9.87-36.83,7.5-6.03,17.17-7.42,25.24-3.61,8.93,4.21,14.14,14.04,14.3,26.97.04,3.54-.59,7.4-1.2,11.13-.58,3.56-1.18,7.24-1.12,10.32.04,2.14,1.39,7.12,2.69,11.93,2.34,8.68,3.84,14.63,3.35,18.13-1.82,13.09-6.22,20.17-12.71,20.47-.03,0-.52.02-1.35.02ZM326.27,347.99c-4.17,0-8.47,1.5-12.03,4.37-7.96,6.4-10.79,17.63-7.78,30.82h0c1.84,8.06,7.04,14.53,11.22,19.73,2.67,3.32,4.97,6.19,6.04,8.96,1.36,3.53-.23,8.12-1.91,12.97-1,2.88-2.25,6.47-1.96,8,.38,2.03,11.66,4.64,20.91,4.2,3.01-.14,5.78-6.15,7.05-15.31.36-2.56-1.7-10.18-3.2-15.75-1.52-5.63-2.83-10.5-2.89-13.37-.08-3.63.57-7.59,1.2-11.41.59-3.63,1.15-7.07,1.12-10.08-.13-10.7-3.99-18.38-10.86-21.62-2.15-1.01-4.5-1.5-6.89-1.5Z"/>
  </g>
  <g>
    <path class="cls-5" d="M346.44,442.34c3.3-1.29,2.53-5.48.42-7.17-4.35-3.48-21.17-7.4-29.02-8.33-16.96-2.01-25.32,11.25-14.32,17.6,8.48,4.9,31.47,2.38,42.92-2.1Z"/>
    <path class="cls-2" d="M318.3,449.58c-6.5,0-12.37-.86-16.02-2.97-5.1-2.95-7.3-7.72-5.72-12.47,1.96-5.89,10-11.14,21.58-9.77,7.65.91,25.26,4.86,30.29,8.86,1.98,1.58,3.06,4.32,2.68,6.82-.32,2.14-1.69,3.83-3.76,4.63h0c-7.1,2.78-18.85,4.91-29.05,4.91ZM314.48,429.14c-7.17,0-12.05,3.16-13.18,6.57-.82,2.47.41,4.8,3.47,6.56,7.27,4.2,29.12,2.29,40.76-2.26.46-.18.58-.41.63-.73.11-.71-.29-1.7-.86-2.16-3.6-2.88-19.61-6.84-27.75-7.81-1.06-.13-2.09-.18-3.07-.18Z"/>
  </g>
  <g>
    <path class="cls-5" d="M181.17,435.45c3.3-1.29,6.18-6.16,2.69-10.27s-13.7-14.47-29.02-14.33c-16.96-2.01-30.32,19.25-19.32,25.6,8.48,4.9,34.2,3.48,45.65-.99Z"/>
    <path class="cls-2" d="M154.12,442.01c-8.2,0-15.75-1.04-19.84-3.41-4.78-2.76-6.44-8-4.44-14.03,2.94-8.85,13.37-17.54,25.14-16.23h.17c15.39,0,25.78,9.52,30.62,15.22,1.93,2.27,2.61,5.03,1.92,7.77-.72,2.87-2.92,5.4-5.61,6.45h0c-6.78,2.65-17.86,4.24-27.97,4.24ZM152.66,413.22c-8.32,0-15.89,6.37-18.07,12.94-.71,2.15-1.38,6.06,2.19,8.12,7.74,4.47,32.53,3.13,43.49-1.15,1.19-.46,2.25-1.7,2.58-3.01.29-1.16,0-2.28-.88-3.31-4.28-5.04-13.43-13.45-26.81-13.45-.09,0-.18,0-.28,0h-.16s-.16-.02-.16-.02c-.63-.08-1.26-.11-1.89-.11Z"/>
  </g>
  <g>
    <path class="cls-5" d="M249.44,441.47c-1.62,7.24-9.81,11.38-13.83,12.84-9.23,2.17-26.77,2.71-35.74-1.12-1.95-.83-3.42-2.51-4.06-4.53-1.96-6.26.86-10.63,3.06-13.66,4.77-6.54,13.97-9.67,17.42-10.05,15.64-1.01,26.79,5.49,33.01,15.7.15.24.2.54.14.82Z"/>
    <path class="cls-2" d="M218.54,458.52c-7.19,0-14.53-.84-19.65-3.03-2.61-1.12-4.6-3.33-5.46-6.08-2.45-7.81,1.52-13.26,3.43-15.88,5.3-7.27,15.38-10.64,19.16-11.06h.11c15.54-1,28.06,4.99,35.3,16.89.48.79.64,1.76.44,2.66h0c-2.04,9.12-12.31,13.52-15.41,14.64l-.29.08c-4.47,1.05-10.99,1.77-17.65,1.77ZM216.51,427.44c-2.7.32-11.24,3.01-15.62,9.03-2.22,3.05-4.26,6.45-2.7,11.44.42,1.35,1.39,2.44,2.66,2.98,8.38,3.58,25.4,3.01,34.04,1.02,2-.75,10.15-4.14,11.97-10.45-6.26-9.89-17.02-14.86-30.34-14.02Z"/>
  </g>
  <path class="cls-2" d="M224.34,457.72h-4c0-18.98,4.82-30.18,13.58-31.55l.62,3.95c-6.39,1-10.2,11.32-10.2,27.6Z"/>
  <path class="cls-2" d="M204.71,455.39c-3.96-11.07.17-20.18,2.13-23.58,2.64-4.59,6.24-7.71,9.62-8.33l.73,3.93c-2.18.4-4.88,2.92-6.89,6.4-1.68,2.92-5.22,10.74-1.83,20.24l-3.77,1.35Z"/>
  <path class="cls-2" d="M141.7,440.41c-2.42-14.21,3.19-28.05,12.78-31.49l1.35,3.76c-7.69,2.76-12.26,14.9-10.19,27.06l-3.94.67Z"/>
  <path class="cls-2" d="M327.16,447.36c-2.34-3.14-2.48-7.34-.38-11.52,1.75-3.49,5.23-7.01,8.5-7.01v4c-1.02,0-3.45,1.87-4.92,4.81-.82,1.64-1.91,4.76.01,7.34l-3.21,2.39Z"/>
  <path class="cls-2" d="M308.2,446.76c-3.72-10.31.24-15.73,7.83-21.14l2.32,3.26c-6.65,4.74-9.31,8.42-6.39,16.52l-3.76,1.36Z"/>
  <path class="cls-2" d="M210.3,413.55c-14.54-6.17-27.21-19.27-35.66-36.87-8.59-17.91-12.01-38.99-9.61-59.37l3.97.47c-4.64,39.47,14.18,79.93,42.86,92.09l-1.56,3.68Z"/>
  <path class="cls-2" d="M338.59,342.39v-4c5.47,0,10.09-4.05,13-7.45,7.52-8.78,12.03-22.96,10.48-32.98l3.95-.61c1.74,11.24-3.05,26.47-11.39,36.2-4.96,5.79-10.51,8.85-16.04,8.85Z"/>
  <g>
    <path class="cls-3" d="M125.4,290.66c-2.53,3.8-.92,15.45,2.84,18.04,31.94,22.08,129.13-.11,152.12-31.4,3.63-4.94,2.55-20.87-2.46-24.4-32.11-22.62-130.77,5.04-152.5,37.76Z"/>
    <path class="cls-2" d="M167.54,320.67c-17.57,0-31.91-3.2-41.01-9.5-5.31-3.67-6.87-17.29-3.63-22.17h0c14.34-21.6,56.19-38.06,89-44.22,29.95-5.62,54.64-3.55,67.72,5.67,3.34,2.35,4.77,7.36,5.39,11.14.96,5.88.64,13.56-2.24,17.48-13.41,18.27-47.27,31.03-74.49,36.88-14.68,3.16-28.5,4.72-40.74,4.72ZM127.9,292.32h0c-1.7,2.56-.27,12.32,2.04,13.92,13.9,9.61,43.43,11.08,77.08,3.85,32.84-7.06,60.68-20.63,70.91-34.56,1.29-1.75,2.1-7.21,1.16-12.96-.7-4.29-2.01-6.56-2.92-7.2-11.77-8.29-34.79-10-63.16-4.67-38.03,7.14-73.82,24.65-85.11,41.64Z"/>
  </g>
  <g>
    <path class="cls-1" d="M108.06,166.79l1.66-29.25L190.25,26.58c3.63-5.01,11.48-3.31,12.73,2.75l2.86,25.03c.38,6.17,1.04,9.35.27,13.99l-.3,1.8c-1.01,6-3.44,11.67-7.09,16.54l-57.08,77.1-30.09,7.49-3.48-4.48Z"/>
    <path class="cls-2" d="M110.56,174.09l-5.05-6.51,1.76-30.91L188.23,25.11c2.27-3.13,6.03-4.57,9.81-3.75,3.78.82,6.61,3.68,7.39,7.47l.03.22,2.87,25.16c.1,1.54.21,2.89.31,4.12.31,3.72.56,6.66-.07,10.44l-.3,1.8c-1.07,6.37-3.68,12.46-7.55,17.63l-57.61,77.81-32.54,8.1ZM110.61,166l1.91,2.46,27.64-6.88,56.55-76.38c3.41-4.54,5.7-9.88,6.63-15.47l.3-1.8c.53-3.16.33-5.56.02-9.2-.1-1.25-.22-2.61-.32-4.16l-2.84-24.84c-.4-1.8-1.71-3.09-3.52-3.49-1.84-.4-3.6.27-4.71,1.8l-80.1,110.37-1.57,27.58Z"/>
  </g>
  <g>
    <path class="cls-4" d="M89.14,175.5s5.93-18.83,11.78-31.5c6.13-13.28,22.42-32.51,34.18-39.99,33.7-21.45,73.08-25.04,115.91-1.02,33.7,18.89,47.59,52.09,46.47,84.77-2.54,73.69-56.51,96.34-70.72,100.6-99.92,29.92-168.8-21.16-179.49-80.17-1.71-9.45-.9-15.85.26-18.89,3.03-8.01,8.94-8.94,17.62-11.23,5.83-1.54,24-2.55,24-2.55Z"/>
    <path class="cls-2" d="M169.88,300.12c-27.72,0-53.23-6.65-74.66-19.8-27.12-16.64-45.67-42.74-50.9-71.6-1.49-8.22-1.34-15.88.4-20.49,3.34-8.85,10-10.57,17.71-12.57.63-.16,1.28-.33,1.94-.51,4.91-1.3,17.54-2.21,22.54-2.52,1.69-5.19,6.47-19.46,11.28-29.88,6.43-13.94,23.25-33.61,35.29-41.27,37.07-23.59,78.21-23.97,118.99-1.11,31.8,17.83,49.3,49.72,48,87.49-1.11,32.19-11.83,58.56-31.87,78.37-17.14,16.94-35.71,23.42-40.99,25-19.85,5.94-39.29,8.89-57.74,8.89ZM192.53,89.32c-19.13,0-37.78,5.74-55.82,17.22-11.06,7.04-27.13,25.85-33.07,38.72-5.7,12.34-11.58,30.95-11.64,31.14l-.62,1.98-2.07.12c-4.97.28-18.86,1.26-23.4,2.46-.67.18-1.33.35-1.97.52-7.88,2.04-11.45,3.18-13.6,8.88-1.06,2.8-1.65,8.82-.11,17.3,4.93,27.19,22.47,51.81,48.13,67.55,34.23,21,79.53,24.65,127.54,10.28,4.95-1.48,22.34-7.55,38.49-23.52,18.92-18.69,29.04-43.69,30.09-74.31,1.22-35.45-15.16-65.35-44.94-82.05-19.37-10.86-38.42-16.29-57.02-16.29Z"/>
  </g>
  <path class="cls-2" d="M51.08,186.76c.56-.86,2.72-1.62,3.74-1.7,4.77-.4,14.46.41,19.06,1.7,6.5,1.83,20.62,6.92,22.89,13.28.85,2.38-6.23,7.28-8.94,8.51-2.16.98-6.51,3.06-8.85,3.4-2.73.4-8.35-.64-10.89-1.7-3.02-1.26-7.9-5.86-10.21-8.17-2.12-2.12-5.68-7.1-6.81-9.87-.51-1.26-.74-4.3,0-5.45Z"/>
  <path class="cls-2" d="M70.57,220.72c1.81-3.62-1.79-16.09-1.79-16.09h10.47s-.15,12.31,1.28,16.09c1.02,2.69,4.78,8.39,7.06,10.13,3.75,2.85,7.42,7.01,14.83,7.06,8.52.06,12.02-11.47,17.78-9.84,1.21.34,2.23,1.53,2.2,2.78-.09,4.43-7.64,11.35-11.49,13.6-3.89,2.28-10.7,2.48-14.06,1.38-8.13-2.66-13.71-9.12-17.6-13.38-.86-.94-2.32-3.15-3.27-4.63-.48-.75-1.52-.87-2.14-.24-1.61,1.6-4.46,4.31-6.21,5.32-2.25,1.3-3.3,1.77-5.25,2.23-2.23.53-8.39-.1-8.39-.1l-3.38-9.73s5.46,2.81,7.45,2.81c3.63,0,10.89-4.15,12.51-7.4Z"/>
  <g>
    <path class="cls-3" d="M206.15,223.61c-14.14,0-24.2-8.42-26.07-10.1-38.35-34.54-78.94-37.88-91.67-38.01,3.59-10.93,14.73-41.85,30.14-56.46,3.97-3.76,8-4.63,13.71-5.52,6.06-.95,12.44-1.42,18.98-1.42,30.79,0,61.19,10.37,77.46,26.41,8.93,8.81,18.17,17.92,18.2,42.21-1.14,16.83-11.78,30.98-21.2,37-6.21,3.9-12.79,5.88-19.54,5.88Z"/>
    <path class="cls-2" d="M151.23,115.1c30.04,0,59.62,10.03,75.36,25.55,8.48,8.37,17.25,17.02,17.3,39.97-1.11,15.74-11.02,28.94-19.8,34.57-5.74,3.6-11.77,5.42-17.94,5.42-10.11,0-19.28-5.03-24.06-9.33-35.66-32.11-73.29-37.79-89.54-38.65,4.47-12.86,14.64-38.69,28.06-51.41,3.23-3.06,6.31-3.83,12.1-4.73,5.91-.92,12.14-1.39,18.52-1.39M151.23,109.1c-6.6,0-13.13.48-19.44,1.46-6.19.97-10.76,1.99-15.31,6.3-19.63,18.61-32.19,61.72-32.19,61.72,0,0,1.18-.09,3.35-.09,11.7,0,52.08,2.7,90.43,37.24,4.92,4.43,15.35,10.88,28.08,10.88,6.59,0,13.79-1.73,21.16-6.35,11.28-7.22,21.49-22.82,22.58-39.43,0-24.85-9.4-34.89-19.09-44.45-17.44-17.2-49.21-27.28-79.57-27.28h0Z"/>
  </g>
  <path class="cls-2" d="M206.15,212.61c-10.33,0-20.21-8.11-21.09-8.79-20.35-15.44-39.59-25.08-58.81-30.34-8.88-2.43-26.91-4.47-34.72-4.47,5.06-16.69,21.59-42.85,22.09-43.23,2.29-1.77,14.72-4.33,32.35-4.33,29.22,0,57.38,8.29,75.54,26.39,7.42,7.39,12.92,14.24,14.3,28.98.24,2.54-.1,5.12-.71,7.6-3.37,13.83-9.27,20.5-15.35,24.05-4.43,2.58-8.94,4.13-13.59,4.13Z"/>
  <ellipse class="cls-5" cx="184.03" cy="169.6" rx="14.69" ry="6.79" transform="translate(-22.41 311.06) rotate(-77.08)"/>
  <ellipse class="cls-5" cx="123.5" cy="152.19" rx="14.36" ry="6.04" transform="translate(-52.45 238.54) rotate(-77.08)"/>
  <g>
    <path class="cls-5" d="M309.57,221.4l59.79-23.38c8.75-3.42,15.76-12.21,19.46-20.84l8.61-20.1c1.39-3.23-1.97-6.46-5.15-4.94l-88.76,42.36,6.04,26.91Z"/>
    <path class="cls-2" d="M307.77,224.79l-7.12-31.69,90.56-43.22c2.39-1.14,5.18-.69,7.09,1.14,1.91,1.84,2.47,4.6,1.43,7.04l-8.61,20.1c-4.53,10.56-12.32,18.85-20.85,22.19l-62.5,24.44ZM306.4,195.89l4.97,22.12,57.08-22.32c8.6-3.37,14.98-12.28,18.07-19.5l8.61-20.1c.32-.75-.1-1.27-.3-1.46s-.74-.59-1.47-.24l-86.96,41.5Z"/>
  </g>
  <g>
    <ellipse class="cls-3" cx="285.37" cy="207.41" rx="42.06" ry="26.92" transform="translate(19.42 439.19) rotate(-77.08)"/>
    <path class="cls-2" d="M279.95,251.85c-1.56,0-3.12-.17-4.66-.53-16.08-3.69-24.64-26.39-19.09-50.61,5.56-24.22,23.16-40.92,39.23-37.23,16.08,3.69,24.64,26.39,19.09,50.61h0c-2.64,11.5-8.02,21.69-15.16,28.69-6.06,5.94-12.81,9.06-19.42,9.06ZM290.76,168.96c-11.91,0-24.3,13.91-28.7,33.1-4.81,20.99,1.73,40.47,14.58,43.42,5.98,1.37,12.56-1.1,18.53-6.97,6.33-6.21,11.12-15.36,13.51-25.75h0c4.81-20.99-1.73-40.47-14.58-43.42-1.1-.25-2.22-.38-3.34-.38Z"/>
  </g>
  <g>
    <path class="cls-5" d="M277.06,208.26l4.26-28.98,90.1-103.35c4.06-4.66,11.73-2.27,12.43,3.87l.62,25.18c-.17,6.18.21,9.41-.98,13.96l-.46,1.77c-1.54,5.89-4.46,11.32-8.53,15.84l-63.72,71.71-30.64,4.78-3.06-4.78Z"/>
    <path class="cls-2" d="M278.65,216.3l-4.73-7.37,4.55-30.96,90.67-104.01c2.67-3.07,6.75-4.22,10.63-3.01,3.88,1.21,6.58,4.47,7.04,8.52l.02.26.62,25.26v.08c-.04,1.54-.05,2.89-.06,4.12-.02,3.77-.04,6.75-1.02,10.52l-.46,1.77c-1.65,6.33-4.83,12.24-9.21,17.09l-64.43,72.5-33.63,5.24ZM280.19,207.59l1.4,2.19,27.64-4.31,63.01-70.9c3.75-4.16,6.46-9.21,7.87-14.61l.46-1.77c.79-3.04.81-5.42.83-9.04,0-1.25.02-2.62.06-4.17l-.61-24.96c-.22-1.61-1.28-2.86-2.85-3.35-1.6-.5-3.22-.04-4.32,1.22l-89.52,102.69-3.97,27Z"/>
  </g>
  <g>
    <ellipse class="cls-4" cx="292.53" cy="208.26" rx="37.46" ry="23.97" transform="translate(24.14 446.83) rotate(-77.08)"/>
    <path class="cls-2" d="M287.7,247.67c-1.38,0-2.75-.15-4.11-.46-14.23-3.26-21.79-23.39-16.87-44.86,4.92-21.47,20.5-36.29,34.73-33.03,7.1,1.63,12.73,7.34,15.86,16.08,2.99,8.35,3.35,18.58,1.01,28.79-2.34,10.21-7.12,19.26-13.45,25.47-5.36,5.26-11.33,8.02-17.18,8.02ZM297.33,173.85c-10.69,0-21.8,12.44-25.73,29.61-4.31,18.79,1.57,36.22,13.11,38.87,5.38,1.23,11.3-.99,16.66-6.25,5.66-5.55,9.95-13.73,12.08-23.02h0c2.13-9.29,1.83-18.52-.84-25.98-2.53-7.08-6.89-11.65-12.27-12.89-1-.23-2-.34-3.01-.34Z"/>
  </g>
  <g>
    <path class="cls-3" d="M294.29,225.97c-2.65,3.14-7.73,1.98-8.74-2s-1.38-9.54.21-16.49c1.59-6.93,4.81-12.69,7.42-15.79s7.73-1.98,8.75,2c1,3.92.97,10.41-.62,17.35-1.59,6.94-4.4,11.83-7.01,14.92Z"/>
    <path class="cls-2" d="M290.44,229.77c-.53,0-1.06-.06-1.6-.18-2.58-.6-4.59-2.56-5.24-5.13-.91-3.59-1.61-9.53.2-17.42,1.7-7.42,5.16-13.46,7.84-16.63,1.71-2.03,4.38-2.93,6.97-2.33,2.58.59,4.6,2.56,5.25,5.13,1.16,4.57.93,11.58-.61,18.29-1.81,7.9-5.04,12.93-7.43,15.77h0c-1.36,1.61-3.33,2.51-5.38,2.51ZM297.01,191.89c-.88,0-1.71.38-2.31,1.09-2.37,2.82-5.45,8.22-7,14.95-1.63,7.11-1.02,12.38-.22,15.55.28,1.12,1.13,1.95,2.26,2.21,1.14.27,2.26-.11,3.02-1.01,2.11-2.5,4.96-6.97,6.59-14.08,1.68-7.32,1.43-13.28.63-16.41-.29-1.13-1.13-1.96-2.27-2.22-.24-.05-.47-.08-.7-.08Z"/>
  </g>
  <circle class="cls-2" cx="154.76" cy="327.87" r="2.04"/>
  <circle class="cls-2" cx="206.46" cy="400.5" r="2.04"/>
  <rect class="cls-2" x="280.36" y="207.33" width="26.55" height="4" transform="translate(-58.67 286.31) rotate(-47.81)"/>
</svg>