<svg xmlns="http://www.w3.org/2000/svg" width="861.042" height="352.09" viewBox="0 0 861.042 352.09"><defs><style>.cls-1{fill:#2f3435;}.cls-2{fill:#006ea0;}.cls-3{fill:#00c0a3;}.cls-4{fill:none;}</style></defs><g id="Capa_2" data-name="Capa 2"><g id="Isotipo"><path class="cls-1" d="M391.009,134.252V62.828h20.844q18.493,0,28.763,9.349t10.269,26.414q0,11.034-4.853,19.056a31.477,31.477,0,0,1-14.05,12.312q-9.2,4.291-21.866,4.293Zm19.21-11.444q13.893.2,21.559-6.132t7.663-18.085q0-12.466-6.846-18.545t-20.64-6.08h-9.4v48.739Z"/><path class="cls-1" d="M466.417,76.316a6.519,6.519,0,0,1-4.8-1.942,6.98,6.98,0,0,1-1.941-4.8,6.8,6.8,0,0,1,6.846-6.744,6.407,6.407,0,0,1,4.7,1.941,6.319,6.319,0,0,1,1.941,4.8,6.524,6.524,0,0,1-1.941,4.8,6.4,6.4,0,0,1-4.7,1.942Zm5.926,58.037H460.9V83.264h11.445Z"/><path class="cls-1" d="M530.277,83.367h.1V131.6q0,11.442-5.722,17.37-6.13,5.825-15.531,5.824-2.252,0-7.255-.51v-11.24a65.455,65.455,0,0,0,6.641.511,14.36,14.36,0,0,0,4.5-.613,8.871,8.871,0,0,0,3.27-1.942q2.452-2.351,2.656-9.605a23.31,23.31,0,0,1-12.772,3.781,22.874,22.874,0,0,1-12.211-3.422,24.44,24.44,0,0,1-8.787-9.351,26.946,26.946,0,0,1-3.219-13.078,27.59,27.59,0,0,1,3.169-13.13,24.34,24.34,0,0,1,8.735-9.452,22.809,22.809,0,0,1,12.313-3.474,23.333,23.333,0,0,1,12.772,3.78V83.367h.1v-.1h11.239Zm-15.02,36.477a16.9,16.9,0,0,0,0-21.049,12.2,12.2,0,0,0-18.444.051,16.576,16.576,0,0,0,0,20.947,12.2,12.2,0,0,0,18.444.051"/><path class="cls-1" d="M545.911,76.316a6.521,6.521,0,0,1-4.8-1.942,6.98,6.98,0,0,1-1.941-4.8,6.8,6.8,0,0,1,6.846-6.744,6.408,6.408,0,0,1,4.7,1.941,6.319,6.319,0,0,1,1.941,4.8,6.524,6.524,0,0,1-1.941,4.8,6.4,6.4,0,0,1-4.7,1.942Zm5.926,58.037H540.392V83.264h11.445Z"/><path class="cls-1" d="M575.848,131.39a16.637,16.637,0,0,1-6.081-7.611,30.2,30.2,0,0,1-2.094-11.8V94.606h-7.255V83.367h7.255V62.828h11.341V83.264h12.978V94.606H579.014v16.655q0,7.459,2.657,10.116a8.12,8.12,0,0,0,3.065,1.942,12.667,12.667,0,0,0,4.19.612q1.226,0,7.152-.612v11.239q-6.029.614-7.152.613a22.559,22.559,0,0,1-13.078-3.781"/><path class="cls-1" d="M616.87,131.749a24.44,24.44,0,0,1-8.787-9.351,26.946,26.946,0,0,1-3.219-13.078,27.6,27.6,0,0,1,3.169-13.13,24.333,24.333,0,0,1,8.735-9.452,23.418,23.418,0,0,1,25.188.409V83.264H653.2v51.089H641.956v-3.065a23.388,23.388,0,0,1-25.086.461m21.3-11.9a16.9,16.9,0,0,0,0-21.049,12.2,12.2,0,0,0-18.444.051,16.576,16.576,0,0,0,0,20.947,12.2,12.2,0,0,0,18.444.051"/><rect class="cls-1" x="661.981" y="62.828" width="11.444" height="71.525"/><path class="cls-1" d="M405.752,238.124a33.9,33.9,0,0,1-12.437-13.1,40.1,40.1,0,0,1,0-37.006,33.891,33.891,0,0,1,12.437-13.105,34.53,34.53,0,0,1,32.018-1.593,32.422,32.422,0,0,1,11.36,8.839l-4.627,6.475A27.63,27.63,0,0,0,435,181.075a26.179,26.179,0,0,0-11.565-2.724,24.827,24.827,0,0,0-13.362,3.7,26.161,26.161,0,0,0-9.405,10.177,29.94,29.94,0,0,0-3.444,14.288,29.633,29.633,0,0,0,3.444,14.236,26.258,26.258,0,0,0,9.405,10.125,25.426,25.426,0,0,0,31.145-3.7l5.962,4.626a24.009,24.009,0,0,1-10.33,8.068,33.324,33.324,0,0,1-31.094-1.746"/><path class="cls-1" d="M470.2,239.459A24.474,24.474,0,0,1,461.156,230a27.055,27.055,0,0,1-3.291-13.21,26.764,26.764,0,0,1,3.291-13.157,24.9,24.9,0,0,1,43.685,0,27.963,27.963,0,0,1,0,26.315,24.987,24.987,0,0,1-9.045,9.457,24.089,24.089,0,0,1-12.747,3.494,24.526,24.526,0,0,1-12.848-3.444m21.484-7.451a16.967,16.967,0,0,0,6.012-6.425,18.517,18.517,0,0,0,2.21-8.994,18.315,18.315,0,0,0-2.21-8.891,16.979,16.979,0,0,0-6.012-6.424,15.844,15.844,0,0,0-8.533-2.365,16.538,16.538,0,0,0-8.736,2.365,16.8,16.8,0,0,0-6.117,6.372,18.2,18.2,0,0,0-2.21,8.943,18.792,18.792,0,0,0,2.21,9.046,16.227,16.227,0,0,0,6.117,6.423,16.816,16.816,0,0,0,8.736,2.314,15.843,15.843,0,0,0,8.533-2.364"/><path class="cls-1" d="M530.384,239.305a25.094,25.094,0,0,1-9.1-9.816A28.658,28.658,0,0,1,518,215.87a25.252,25.252,0,0,1,3.238-12.49,24.425,24.425,0,0,1,9.046-9.25,25.4,25.4,0,0,1,13.209-3.444,22.837,22.837,0,0,1,9.763,2.107,21.144,21.144,0,0,1,7.607,5.911V170.128h8.532v71.954h-8.429v-7.3a22.663,22.663,0,0,1-7.71,5.961,22.355,22.355,0,0,1-9.763,2.159,24.354,24.354,0,0,1-13.106-3.6m24.721-9.507a17.088,17.088,0,0,0,5.345-11.256v-4.008a16.989,16.989,0,0,0-5.345-11.154,16.017,16.017,0,0,0-11.411-4.471,16.547,16.547,0,0,0-8.736,2.365,16.794,16.794,0,0,0-6.117,6.372,18,18,0,0,0-2.209,8.84,18.494,18.494,0,0,0,2.209,8.994,16.63,16.63,0,0,0,14.853,8.79,16.014,16.014,0,0,0,11.411-4.472"/><path class="cls-1" d="M591.492,239.305a24.86,24.86,0,0,1-9.047-9.508,27.061,27.061,0,0,1-3.289-13.207,26.5,26.5,0,0,1,3.289-13.107,24.718,24.718,0,0,1,9.047-9.354,24.365,24.365,0,0,1,12.745-3.443,23.95,23.95,0,0,1,13.055,3.7,24.688,24.688,0,0,1,9.045,10.125,27.706,27.706,0,0,1,2.775,14.032H587.483a16.559,16.559,0,0,0,2.312,8.171,16.826,16.826,0,0,0,6.014,6.014,16.364,16.364,0,0,0,8.531,2.261,16.734,16.734,0,0,0,9-2.519,18.02,18.02,0,0,0,6.321-6.527l5.756,5.242a21.126,21.126,0,0,1-8.942,8.737,26.568,26.568,0,0,1-12.233,2.878,24.069,24.069,0,0,1-12.745-3.5m28.678-28.061a14.607,14.607,0,0,0-5.551-9.1A16.212,16.212,0,0,0,604.34,198.6a16.929,16.929,0,0,0-10.588,3.546,13.246,13.246,0,0,0-5.345,9.1Z"/><path class="cls-1" d="M648.077,241.105a29.862,29.862,0,0,1-9.1-5.5l2.263-7.71a25.052,25.052,0,0,0,8.17,5.5A22.427,22.427,0,0,0,658,235.3q5.035,0,7.349-1.543a5.493,5.493,0,0,0,2.314-4.933q0-2.158-2.622-3.8a39.249,39.249,0,0,0-8.582-3.5,64.191,64.191,0,0,1-8.121-3.289Q639.8,214.225,639.8,206a13.355,13.355,0,0,1,5.294-11.049q5.293-4.163,13.516-4.164a26.162,26.162,0,0,1,16.241,5.655L673,204.152a30.31,30.31,0,0,0-7.811-4.163,21.685,21.685,0,0,0-6.58-1.08,12.484,12.484,0,0,0-7.246,1.954,5.893,5.893,0,0,0-2.827,5.035q0,3.5,4.112,5.448,2.16,1.029,7.093,2.776,8.118,2.674,12.181,6.168a10.853,10.853,0,0,1,4.058,8.531q0,6.992-4.676,10.588t-13.208,3.6a27.948,27.948,0,0,1-10.022-1.9"/><path class="cls-1" d="M691.4,180.305a5.007,5.007,0,0,1-3.7-1.44,5.466,5.466,0,0,1-1.439-3.7,5.041,5.041,0,0,1,1.543-3.7,4.827,4.827,0,0,1,3.7-1.543,5.043,5.043,0,0,1,3.7,1.543,4.805,4.805,0,0,1,1.439,3.7,5.012,5.012,0,0,1-1.439,3.7,5.473,5.473,0,0,1-3.7,1.44Zm4.317,61.776H687.6V190.687h8.119Z"/><path class="cls-1" d="M746.8,190.686h8.018V242.08h-.1q-.516,9.765-5.448,14.906-5.962,5.652-15.418,5.653a51.591,51.591,0,0,1-5.757-.411v-7.915q4.11.41,5.757.411a12.513,12.513,0,0,0,9.251-3.494q3.493-3.187,3.5-12.541V235.3a20.038,20.038,0,0,1-7.041,5.6,20.244,20.244,0,0,1-8.892,2,22.726,22.726,0,0,1-12.232-3.444,24.324,24.324,0,0,1-8.737-9.405,28.962,28.962,0,0,1,0-26.416,24.868,24.868,0,0,1,8.685-9.457,22.435,22.435,0,0,1,12.284-3.5,19.823,19.823,0,0,1,8.892,2,21.356,21.356,0,0,1,7.041,5.6v-7.5h.2Zm-5.4,39.779a18.414,18.414,0,0,0,5.191-11.409V214.74a18.551,18.551,0,0,0-5.14-11.565,14.718,14.718,0,0,0-10.9-4.471,14.98,14.98,0,0,0-8.274,2.415,16.512,16.512,0,0,0-5.859,6.579,20.075,20.075,0,0,0-2.108,9.2,19.7,19.7,0,0,0,2.159,9.2,16.666,16.666,0,0,0,5.859,6.527,14.948,14.948,0,0,0,8.223,2.365,14.678,14.678,0,0,0,10.845-4.524"/><path class="cls-1" d="M800.707,196.134q5.448,5.45,5.448,14.8v31.249h-8.531V211.655q0-6.168-3.033-9.405t-8.789-3.238a14.651,14.651,0,0,0-9.817,3.186,10.741,10.741,0,0,0-3.75,8.635v31.351H763.7v-51.5h8.635v3.906a21.1,21.1,0,0,1,6.27-2.878,26.844,26.844,0,0,1,7.4-1.028q9.254,0,14.7,5.448"/><path class="cls-2" d="M67.15,253.88a9.994,9.994,0,0,0,9.094-5.858l111.458.013a32.4,32.4,0,0,0,0-64.805c-.028,0-79.051,0-111.772,0A10,10,0,0,0,57.141,188c0,.072.009.143.011.215l0,.013c0,.014,0,.027,0,.04a9.986,9.986,0,0,0,18.5,4.96H187.7a22.4,22.4,0,0,1,.53,44.791H75.242a9.989,9.989,0,0,0-17.662,2.963,5.1,5.1,0,0,0-.43,2.037c0,.1.023.193.029.292-.011.189-.029.375-.029.567A10,10,0,0,0,67.15,253.88Z"/><path class="cls-2" d="M67.141,150.88a10,10,0,0,0,9.209-6.1h91.441A70.751,70.751,0,0,1,212.549,164.9a56.358,56.358,0,0,0-25.248-5.943H102.968a10,10,0,1,0,.559,10H187.3a46.672,46.672,0,0,1,46.5,43.438c.045,1.042.076,2.087.076,3.14,0,1.117-.033,2.226-.084,3.331A46.672,46.672,0,0,1,187.3,262.194H103.413a10.012,10.012,0,1,0-.3,10H187.3a56.38,56.38,0,0,0,25.066-5.849,70.687,70.687,0,0,1-49.429,20.125H76.056A9.995,9.995,0,0,0,57.15,291c0,.105.013.207.016.312,0,.053-.016.1-.016.156,0,.161.033.312.048.469.005.056.01.112.016.168a4.942,4.942,0,0,0,.076.492,9.988,9.988,0,0,0,18.227,3.871h86.7c0-.005.482,0,.717,0a80.937,80.937,0,0,0,80.841-77.086c.084-1.261.142-2.528.142-3.81s-.057-2.521-.139-3.768a80.933,80.933,0,0,0-80.844-77.212c-1.436,0-61.051.112-87.9.163a9.981,9.981,0,0,0-17.267,2.665,4.942,4.942,0,0,0-.618,2.359c0,.1.025.2.031.3-.021.263-.04.526-.04.795A10,10,0,0,0,67.141,150.88Z"/><path class="cls-3" d="M197.309,135.794a22.424,22.424,0,0,1,21.873-22.389H332.171a9.99,9.99,0,0,0,17.663-2.963,5.1,5.1,0,0,0,.429-2.037c0-.1-.023-.194-.028-.292.01-.189.028-.376.028-.567A9.995,9.995,0,0,0,331.17,103.4l-111.458-.013a32.4,32.4,0,0,0-32.4,32.4c0,.872.045,1.734.113,2.589a80.306,80.306,0,0,1,11.015,4.416A22.309,22.309,0,0,1,197.309,135.794Z"/><path class="cls-3" d="M331.483,168.2a10,10,0,0,0,18.79-4.772c0-.073-.01-.143-.011-.215V163.2c0-.014,0-.027,0-.041a9.986,9.986,0,0,0-18.5-4.959H220.03a81.422,81.422,0,0,1,8.551,10C250.143,168.2,305.457,168.2,331.483,168.2Z"/><path class="cls-3" d="M173.622,132.563a46.671,46.671,0,0,1,46.49-43.331H304a10.011,10.011,0,1,0,.3-10H220.112a56.372,56.372,0,0,0-25.065,5.849,70.685,70.685,0,0,1,49.428-20.125h86.882a9.995,9.995,0,0,0,18.906-4.532c0-.1-.012-.207-.016-.312,0-.053.016-.1.016-.156,0-.161-.032-.312-.047-.469,0-.056-.011-.112-.017-.168a4.941,4.941,0,0,0-.075-.492A9.988,9.988,0,0,0,331.9,54.956h-86.7s-.482,0-.717,0a80.935,80.935,0,0,0-80.84,77.086c-.057.851-.093,1.707-.117,2.566a81.572,81.572,0,0,1,10.034.7C173.561,134.388,173.579,133.473,173.622,132.563Z"/><path class="cls-3" d="M304.446,192.472a10,10,0,1,0-.56-10H236.811a80.2,80.2,0,0,1,3.721,10Z"/><path class="cls-3" d="M340.273,200.546a10,10,0,0,0-9.21,6.1h-87.7c.186,1.707.339,3.424.418,5.161.082,1.247.139,2.5.139,3.768,0,.417-.015.83-.026,1.244.194,0,.386.014.58.014,1.436,0,61.051-.112,87.9-.163A9.982,9.982,0,0,0,349.646,214a4.941,4.941,0,0,0,.617-2.359c0-.1-.024-.2-.03-.3.02-.263.04-.527.04-.8A10,10,0,0,0,340.273,200.546Z"/><rect class="cls-4" width="861.042" height="352.09"/></g></g></svg>